# xmcd
#
# Track frame offsets: 
#        150
#        16276
#        31641
#        53249
#        71565
#        89270
#        110659
#        128688
#        149631
#        168905
#        185350
#        197725
#        215051
#
# Disc length: 3015 seconds
#
# Revision: 0
# Processed by: cddbd v1.5.2PL0 Copyright (c) Steve Scherf et al.
# Submitted via: ExactAudioCopy v0.99pb5
#
DISCID=b80bc50d
DTITLE=Becky Schlegel - Dandelion
DYEAR=2010
DGENRE=Country
TTITLE0=Anna
TTITLE1=Dandelion
TTITLE2=Colorado Line
TTITLE3=Nowhere Bound
TTITLE4=I Never Loved You Cowboy
TTITLE5=I Never Needed You
TTITLE6=So Embarrassing
TTITLE7=The Way You Are
TTITLE8=Don't Leave It Up To Me
TTITLE9=When It Rains
TTITLE10=Cincinnati
TTITLE11=Reunion
TTITLE12=If I Were A Poet
EXTD=Original Americana, Bluegrass and Country
EXTT0=
EXTT1=
EXTT2=
EXTT3=
EXTT4=
EXTT5=
EXTT6=
EXTT7=
EXTT8=
EXTT9=
EXTT10=
EXTT11=
EXTT12=
PLAYORDER=
